<svg id="svg" version="1.1" x="0px" y="0px" width="1417.324px" height="1417.324px" viewbox="0 0 1417.324 1417.324" enable-background="new 0 0 1417.324 1417.324" style="overflow: hidden; display: inline; width: inherit; min-width: inherit; max-width: inherit; height: inherit; min-height: inherit; max-height: inherit; touch-action: none; -webkit-user-select: none; -webkit-user-drag: none; -webkit-tap-highlight-color: rgba(0, 0, 0, 0);"
            xml:space="preserve"><g id="shenti"><rect x="644.631" y="342.974" fill="#FFCB98" stroke="#231815" stroke-width="0.25" stroke-miterlimit="10" width="130.179" height="104.044"></rect><path fill="#FFCB98" stroke="#231815" stroke-width="0.25" stroke-miterlimit="10" d="M797.517,408.855          c-68.521-8.454-124.8-6.124-175.594,0.154l87.475,56.619L797.517,408.855z"></path><path fill="#FFCC9A" stroke="#231815" stroke-width="0.25" stroke-miterlimit="10" d="M845.746,310.563          c-2.695,23.868-38.174,42.534-60.166,42.534H643.481c-21.996,0-67.938-18.666-70.635-42.534L557.8,177.316          c-3.469-30.706,14.988-56.645,41.369-56.645h220.254c26.385,0,44.836,25.939,41.371,56.645L845.746,310.563z"></path><g><path fill="#FFCC9A" stroke="#231815" stroke-width="0.25" stroke-miterlimit="10" d="M591.117,471.544            c0,0-55.466,194.894-86.835,262.125c-31.368,67.234-75.377,35.838-65.486-15.07c9.883-50.899,67.865-294.938,67.865-294.938            L591.117,471.544z"></path><path fill="#FFCC9A" stroke="#231815" stroke-width="0.25" stroke-miterlimit="10" d="M440.715,734.726            c-24.386,29.742-37.256,107.031-38.712,133.416c-1.046,18.979,1.32,35.275,20.477,47.035c12.44,7.646,22.467-1.896,30.229-15.965            c9.976-18.08,9.351-61.311,19.081-66.383c5.229-2.732,14.662-7.617,13.476,0.963c-1.186,8.578-8.3,17.699-5.298,29.428            c3.004,11.732,9.084,26.41,16.131,9.287c7.046-17.129,13.075-35.934,10.626-53.158c-2.446-17.223-7.151-70.534-14.646-72.76            C486.626,744.976,440.715,734.726,440.715,734.726z"></path></g><g><path fill="#FFCC9A" stroke="#231815" stroke-width="0.25" stroke-miterlimit="10" d="M828.109,471.544            c0,0,55.465,194.894,86.834,262.125c31.366,67.234,75.379,35.838,65.482-15.07c-9.883-50.899-67.859-294.938-67.859-294.938            L828.109,471.544z"></path><path fill="#FFCC9A" stroke="#231815" stroke-width="0.25" stroke-miterlimit="10" d="M978.511,734.726            c24.387,29.742,37.256,107.031,38.711,133.416c1.049,18.979-1.314,35.275-20.477,47.035c-12.439,7.646-22.463-1.896-30.227-15.965            c-9.979-18.08-9.354-61.311-19.078-66.383c-5.23-2.732-14.662-7.617-13.479,0.963c1.188,8.578,8.299,17.699,5.297,29.428            c-3.004,11.732-9.084,26.41-16.131,9.287c-7.045-17.129-13.074-35.934-10.625-53.158c2.451-17.223,7.156-70.534,14.65-72.76            C932.599,744.976,978.511,734.726,978.511,734.726z"></path></g><path fill="#D1CCD5" stroke="#D0CBD4" stroke-miterlimit="10" d="M623.614,111.029c17.993-2.149-9.326,40.076-9.104,71.528          c0.021,1.505,0.029,3.063,0.037,4.668c0.063,10.527-53.423,18.054-52.996,77.526L548.329,153.9c0,0,5.163-20.695,28.793-31.913          C588.012,116.822,604.774,113.275,623.614,111.029z"></path><path fill="#D1CCD5" stroke="#D0CBD4" stroke-miterlimit="10" d="M623.614,111.029c17.993-2.149-9.326,40.076-9.104,71.528          c0.021,1.505,0.029,3.063,0.037,4.668c0.063,10.527-53.423,18.054-52.996,77.526L548.329,153.9c0,0,5.163-20.695,28.793-31.913          C588.012,116.822,604.774,113.275,623.614,111.029z"></path><path fill="#D1CCD5" stroke="#D0CBD4" stroke-miterlimit="10" d="M623.614,111.029c17.993-2.149-9.326,40.076-9.104,71.528          c0.021,1.505,0.029,3.063,0.037,4.668c0.063,10.527-53.423,18.054-52.996,77.526L548.329,153.9c0,0,5.163-20.695,28.793-31.913          C588.012,116.822,604.774,113.275,623.614,111.029z"></path><path fill="#D1CCD5" stroke="#D0CBD4" stroke-miterlimit="10" d="M792.769,111.029c-17.986-2.149,9.326,40.076,9.104,71.528          c-0.021,1.505-0.027,3.063-0.037,4.668c-0.059,10.527,53.422,18.054,52.998,77.526L868.058,153.9c0,0-5.158-20.695-28.793-31.913          C828.373,116.822,811.609,113.275,792.769,111.029z"></path><g><path fill="#D1CCD5" stroke="#D0CBD4" stroke-miterlimit="10" d="M710.414,295.442c-12.366-9.948-20.088-15.915-44.807,0            c-24.729,15.912-29.355,35.806-35.539,41.78c-6.183,5.966,79.771-12.352,79.771-12.352L710.414,295.442z"></path><path fill="#D1CCD5" stroke="#D0CBD4" stroke-miterlimit="10" d="M708.192,295.442c12.354-9.948,20.081-15.915,44.805,0            c24.719,15.912,29.352,35.806,35.531,41.78c6.184,5.966-79.774-12.352-79.774-12.352L708.192,295.442z"></path></g><path fill="#888888" stroke="#231815" stroke-width="0.25" stroke-miterlimit="10" d="M709.976,920.703          c20.951-0.563,19.066,18.725,23.813,75.91c9.875,119.084,22.002,253.238,27.971,307.066c5.027,45.354,35.771,36.271,73.959,36.156          c19.576-0.051,38.427,0.969,50.029-71.604c11.604-72.588,25.572-454.513,25.572-454.513H709.976H508.635          c0,0,13.964,381.925,25.572,454.513c11.6,72.569,30.452,71.553,50.029,71.604c38.186,0.111,68.932,9.197,73.958-36.156          c5.966-53.826,18.096-187.982,27.971-307.066C690.906,939.427,689.024,920.144,709.976,920.703z"></path><g><path fill="#AD7279" d="M622.595,403.989l86.7,55.805v354.071l-202.644-0.461V423c24.151-4.335,114.982-19.63,114.982-19.63"></path><path fill="#AD7279" d="M796,403.989l-86.705,55.805v354.071l202.65-0.461V423c-24.158-4.335-114.992-19.63-114.992-19.63"></path></g><path fill="#3E3A39" stroke="#231815" stroke-width="0.25" stroke-miterlimit="10" d="M599.593,1328.841          c-42.313,0-76.555,33.396-76.555,74.678h153.123C676.161,1362.238,641.917,1328.841,599.593,1328.841z"></path><path fill="#3E3A39" stroke="#231815" stroke-width="0.25" stroke-miterlimit="10" d="M821.671,1328.841          c42.316,0.273,76.361,33.89,76.115,75.168l-153.115-0.994C744.906,1361.734,779.349,1328.561,821.671,1328.841z"></path><path fill="#FFFFFF" d="M637.656,1344.52c0,12.099-17.043,21.905-38.063,21.905c-21.017,0-38.06-9.813-38.06-21.905          c0-12.094,17.043-21.903,38.06-21.903C620.613,1322.611,637.656,1332.423,637.656,1344.52z"></path><path fill="#FFFFFF" d="M859.291,1344.52c0,12.099-17.037,21.905-38.061,21.905c-21.021,0-38.063-9.813-38.063-21.905          c0-12.094,17.043-21.903,38.063-21.903C842.253,1322.611,859.291,1332.423,859.291,1344.52z"></path><g><path fill="none" stroke="#231815" stroke-width="3" stroke-miterlimit="10" d="M644.631,226.359            c0-7.037,5.697-12.734,12.734-12.734"></path><path fill="none" stroke="#231815" stroke-width="3" stroke-miterlimit="10" d="M670.099,226.359            c0-7.037-5.692-12.734-12.729-12.734"></path></g><g><path fill="none" stroke="#231815" stroke-width="3" stroke-miterlimit="10" d="M776.193,226.359            c0-7.037-5.697-12.734-12.734-12.734"></path><path fill="none" stroke="#231815" stroke-width="3" stroke-miterlimit="10" d="M750.724,226.359            c0-7.037,5.697-12.734,12.734-12.734"></path></g></g><polygon id="zuogebo" fill="transparent" onclick="clickBuWei('sizhi')" stroke="transparent" stroke-miterlimit="10" points="506.651,423 438.796,718.599         437.378,739.188 424.817,763.824 402.55,861.105 402.55,885.867 409.686,903.782 430.162,917.888 452.708,899.212 462.034,862.973         478.97,829.571 479.715,852.451 482.073,870.194 491.027,879.93 509.33,832.155 500.447,772.082 492.162,753.162 504.282,733.669         "></polygon><polygon id="yougebo" fill="transparent" onclick="clickBuWei('sizhi')" stroke="transparent" stroke-miterlimit="10" points="911.945,423 911.946,727.029         924.186,750.251 911.946,817.162 911.946,841.162 930.028,880.294 939.258,863.22 933.162,826.307 951.49,838.151 966.519,899.212         988.162,917.888 1013.385,897.259 1017.222,868.142 1005.612,799.301 980.162,737.162 975.589,695.505 "></polygon><polygon id="fu" fill="transparent" onclick="clickBuWei('fu')" stroke="transparent" stroke-miterlimit="10" points="506.651,608.618 505.987,813.72 911.32,813.405         911.32,608.618 "></polygon><polygon id="toujin" fill="transparent" onclick="clickBuWei('toujin')" stroke="transparent" stroke-miterlimit="10" points="639.103,352.882 596.679,338.417         574.975,317.727 563.647,245.047 560.874,259.077 548.329,153.9 570.735,125.509 623.614,111.029 629.752,120.671 786.634,120.671         788.847,111.029 849.002,127.796 868.058,153.9 854.834,264.751 853.162,251.162 845.746,310.563 828.109,337.13 789.844,352.882         774.81,352.882 774.81,406.404 788.847,406.404 709.295,459.794 629.752,408.083 644.631,403.369 647.162,353.162 "></polygon><polygon id="tun" fill="transparent" onclick="clickBuWei('tun')" stroke="transparent" stroke-miterlimit="10" points="505.987,813.72 514.248,917.888 709.976,920.703         907.046,920.703 911.32,813.405 508.635,813.405 "></polygon><polygon id="zuotui" fill="transparent" onclick="clickBuWei('sizhi')" stroke="transparent" stroke-miterlimit="10" points="561.533,1335.519 525.061,1386.387         523.038,1403.519 676.161,1403.519 665.933,1366.18 637.656,1335.519 653.39,1322.616 661.682,1270.214 672.656,1153.116         681.487,1052.189 687.753,976.058 703.162,917.888 514.248,917.888 523.038,1169.162 539.723,1295.497 "></polygon><polygon id="youtui" fill="transparent" stroke="transparent" onclick="clickBuWei('sizhi')" stroke-miterlimit="10" points="716.162,920.703 731.445,965.984         762.893,1311.019 783.167,1337.852 757.988,1361.317 744.671,1403.015 897.786,1404.009 885.03,1362.25 859.291,1338.727         874.172,1314.166 890.571,1223.196 907.046,920.703 "></polygon><path id="xiong" fill="transparent" onclick="clickBuWei('xiong')" stroke="transparent" stroke-miterlimit="10" d="M505.162,609.162c41.628,0,82.936,3,124.758,3        c22.06,0,44.119,0,66.178,0c40.004,0,80.009,0,120.013,0c28.765,0,59.989,2.375,88.026-2c8.249-1.287,8.444,1.233,9.045-7.754        c0.416-6.23-4.173-13.108-5.016-19.249c-1.277-9.297-0.479-20.555-0.004-29.968c0.679-13.474,4.73-27.221,6-40.199        c1.08-11.039,0-22.76,0-33.852c0-9.327,0-18.654,0-27.98c0-5.44,4.094-23.569,0.826-27.771c-2.913-3.745-8.5-1.939-12.826-2.226        c-9.947-0.659-17.673-5.724-27.046-7.884c-9.794-2.258-19.926-1.729-30.009-3.119c-19.531-2.693-38.383-4.595-58.798-3.897        c0.612,8.528-7.717,8.373-13.448,9.897c-9.738,2.589-8.874,3.359-16.974,10.126c-8.527,7.125-18.789,11.51-27.471,18.123        c-5.637,4.293-17.603,14.493-25.97,11.728c-4.125-1.363-9.39-12.211-14.285-15.219c-5.2-3.195-10.646-3.877-16.274-6.032        c-19.621-7.512-33.71-25.438-53.534-32.238c-9.951-3.414-23.04,2.514-34.166,2.516c-13.408,0.002-24.119,2.521-36.082,6.171        c-14.154,4.317-31.086,10.396-46.888,12.003c0.137,8.264,6.68,15.811,7.995,24.025c1.19,7.432-0.753,15.28-1.052,22.578        c-0.698,17.056-4,31.817-4,49.274c0,14.267-1.564,29.507-0.052,43.674c1.587,14.865,8.563,32.132,2.052,47.274"></path></svg>